<svg fill="#c4c0c0" height="800px" width="800px" xmlns="http://www.w3.org/2000/svg" xmlns:xlink="http://www.w3.org/1999/xlink" version="1.1" x="0px" y="0px" viewBox="0 0 1024 1024" style="enable-background:new 0 0 1024 1024;" xml:space="preserve"><g><g><g><path d="M880.3,360.8c-15.6,21.9-31.2,43.7-46.8,65.6c-24.7,34.6-49.3,69.1-74,103.7     c-5.9,8.2-11.5,16.6-17.6,24.6c1.8-2.4,3.6-4.7,5.5-7.1c-1.3,1.5-2.6,2.9-4.2,4.1c2.4-1.8,4.7-3.6,7.1-5.5c-2,1.5-4,2.7-6.3,3.7     c2.8-1.2,5.6-2.4,8.4-3.5c-2.3,0.9-4.6,1.5-7.1,1.8c3.1-0.4,6.2-0.8,9.3-1.3c-6.3,0.5-12.7,0.2-19,0.2c-15,0-30,0-45,0     c-49.2,0-98.4,0-147.6,0c-59.5,0-119,0-178.6,0c-51.4,0-102.9,0-154.3,0c-24.5,0-49.1,0.2-73.6,0c-1.6,0-3.3-0.1-4.9-0.3     c3.1,0.4,6.2,0.8,9.3,1.3c-2.2-0.4-4.3-1-6.4-1.8c2.8,1.2,5.6,2.4,8.4,3.5c-2-0.9-3.9-2-5.7-3.3c2.4,1.8,4.7,3.6,7.1,5.5     c-2.1-1.6-3.9-3.4-5.5-5.5c1.8,2.4,3.6,4.7,5.5,7.1c-1.3-1.8-2.4-3.7-3.3-5.7c1.2,2.8,2.4,5.6,3.5,8.4c-0.8-2.1-1.4-4.2-1.8-6.4     c0.4,3.1,0.8,6.2,1.3,9.3c-0.6-4.5-0.3-9.1-0.3-13.7c0-9.2,0-18.3,0-27.5c0-30.7,0-61.4,0-92.2c0-37.2,0-74.3,0-111.5     c0-32.2,0-64.3,0-96.5c0-15.2-0.2-30.5,0-45.7c0-1.5,0.1-3,0.3-4.6c-0.4,3.1-0.8,6.2-1.3,9.3c0.4-2.2,1-4.3,1.8-6.4     c-1.2,2.8-2.4,5.6-3.5,8.4c0.9-2,2-3.9,3.3-5.7c-1.8,2.4-3.6,4.7-5.5,7.1c1.6-2.1,3.4-3.9,5.5-5.5c-2.4,1.8-4.7,3.6-7.1,5.5     c1.8-1.3,3.7-2.4,5.7-3.3c-2.8,1.2-5.6,2.4-8.4,3.5c2.1-0.8,4.2-1.4,6.4-1.8c-3.1,0.4-6.2,0.8-9.3,1.3c6.5-0.8,13.3-0.3,19.8-0.3     c14.9,0,29.8,0,44.7,0c49.1,0,98.2,0,147.2,0c59.5,0,119,0,178.5,0c51.5,0,103.1,0,154.6,0c24.7,0,49.5-0.2,74.2,0     c1.3,0,2.5,0.1,3.8,0.2c-3.1-0.4-6.2-0.8-9.3-1.3c2.5,0.3,4.7,0.9,7.1,1.8c-2.8-1.2-5.6-2.4-8.4-3.5c2.3,1,4.3,2.2,6.3,3.7     c-2.4-1.8-4.7-3.6-7.1-5.5c1.5,1.3,2.9,2.6,4.2,4.1c-1.8-2.4-3.6-4.7-5.5-7.1c16.6,21.9,32,44.8,48,67.1     c24.9,34.9,49.8,69.8,74.7,104.7c3.9,5.5,7.9,11,11.8,16.5c2.5,3.6,5.2,7,6.9,11c-1.2-2.8-2.4-5.6-3.5-8.4c0.7,2,1.2,3.9,1.6,5.9     c-0.4-3.1-0.8-6.2-1.3-9.3c0.3,2.6,0.3,5,0,7.6c0.4-3.1,0.8-6.2,1.3-9.3c-0.4,2.1-0.9,4-1.6,5.9c1.2-2.8,2.4-5.6,3.5-8.4     C882.5,357.2,881.5,359,880.3,360.8c-10.2,15.3-3.5,39.4,12.6,47.9c17.6,9.3,37,3.7,47.9-12.6c13-19.5,12.8-47.6-0.7-66.8     c-2.7-3.8-5.4-7.6-8.1-11.4c-11.8-16.6-23.7-33.2-35.5-49.7c-27.5-38.5-55-77-82.4-115.5c-3.1-4.4-6.2-8.7-9.3-13.1     c-0.5-0.6-0.9-1.3-1.4-1.9c-5.8-8-11.5-14.3-20-19.6c-8.8-5.5-18.5-7.7-28.6-8.6c-5.1-0.4-10.3-0.2-15.4-0.2     c-29.7,0-59.4,0-89.1,0c-47.6,0-95.2,0-142.8,0c-52.9,0-105.8,0-158.7,0c-45,0-90,0-135,0c-24.5,0-49,0-73.5,0     c-1.4,0-2.8,0-4.3,0c-30.7,0.7-57.2,22.7-61.3,53.4c-1.2,9.1-0.9,18.2-0.9,27.3c0,40.9,0,81.8,0,122.7c0,51.4,0,102.8,0,154.2     c0,28.9-0.2,57.8,0,86.7c0.2,35.3,28.1,63.2,63.4,63.4c6.8,0,13.5,0,20.3,0c33.4,0,66.8,0,100.2,0c49.3,0,98.6,0,147.9,0     c52.5,0,105,0,157.6,0c42.6,0,85.2,0,127.8,0c20.1,0,40.1,0.2,60.2,0c0.3,0,0.6,0,0.9,0c21.1-0.5,38.2-10.4,50.7-27.1     c1.9-2.5,3.7-5.1,5.5-7.6c10.4-14.6,20.8-29.2,31.2-43.8c28.4-39.8,56.8-79.5,85.2-119.3c5.5-7.7,11-15.4,16.5-23.1     c5-7,5.7-19,3.5-27c-2.2-8.1-8.5-16.9-16.1-20.9c-8.1-4.3-18-6.4-27-3.5C892.1,347.6,885.9,353,880.3,360.8z"/></g></g><g><g><path d="M655.8,291.6c0,41.9,0,83.8,0,125.6c0,6.6,0.5,13.5-0.3,20.1c0.4-3.1,0.8-6.2,1.3-9.3     c-0.4,2.7-1.1,5.2-2.1,7.7c1.2-2.8,2.4-5.6,3.5-8.4c-1.1,2.4-2.4,4.6-3.9,6.7c1.8-2.4,3.6-4.7,5.5-7.1c-1.6,2-3.4,3.8-5.5,5.5     c2.4-1.8,4.7-3.6,7.1-5.5c-2.1,1.6-4.3,2.8-6.7,3.9c2.8-1.2,5.6-2.4,8.4-3.5c-2.5,1-5,1.7-7.7,2.1c3.1-0.4,6.2-0.8,9.3-1.3     c-12.5,1.4-25.6,0.3-38.1,0.3c-12.5,0-25.6,1.1-38.1-0.3c3.1,0.4,6.2,0.8,9.3,1.3c-2.7-0.4-5.2-1.1-7.7-2.1     c2.8,1.2,5.6,2.4,8.4,3.5c-2.4-1.1-4.6-2.4-6.7-3.9c2.4,1.8,4.7,3.6,7.1,5.5c-2-1.6-3.8-3.4-5.5-5.5c1.8,2.4,3.6,4.7,5.5,7.1     c-1.6-2.1-2.8-4.3-3.9-6.7c1.2,2.8,2.4,5.6,3.5,8.4c-1-2.5-1.7-5-2.1-7.7c0.4,3.1,0.8,6.2,1.3,9.3c-0.6-5.7-0.3-11.5-0.3-17.2     c0-11.4,0-22.8,0-34.2c0-26,0-52,0-78c0-6.7-0.5-13.7,0.3-20.4c-0.4,3.1-0.8,6.2-1.3,9.3c0.4-2.7,1.1-5.2,2.1-7.7     c-1.2,2.8-2.4,5.6-3.5,8.4c1.1-2.4,2.4-4.6,3.9-6.7c-1.8,2.4-3.6,4.7-5.5,7.1c1.6-2,3.4-3.8,5.5-5.5c-2.4,1.8-4.7,3.6-7.1,5.5     c2.1-1.6,4.3-2.8,6.7-3.9c-2.8,1.2-5.6,2.4-8.4,3.5c2.5-1,5-1.7,7.7-2.1c-3.1,0.4-6.2,0.8-9.3,1.3c12.5-1.4,25.6-0.3,38.1-0.3     c12.5,0,25.6-1.1,38.1,0.3c-3.1-0.4-6.2-0.8-9.3-1.3c2.7,0.4,5.2,1.1,7.7,2.1c-2.8-1.2-5.6-2.4-8.4-3.5c2.4,1.1,4.6,2.4,6.7,3.9     c-2.4-1.8-4.7-3.6-7.1-5.5c2,1.6,3.8,3.4,5.5,5.5c-1.8-2.4-3.6-4.7-5.5-7.1c1.6,2.1,2.8,4.3,3.9,6.7c-1.2-2.8-2.4-5.6-3.5-8.4     c1,2.5,1.7,5,2.1,7.7c-0.4-3.1-0.8-6.2-1.3-9.3C655.7,288.9,655.8,290.2,655.8,291.6c0.4,18.3,15.8,35.9,35,35     c18.6-0.8,35.4-15.4,35-35c-0.4-17.1-6.7-32.6-18.2-45.2c-11.2-12.2-26.8-18.1-42.9-19.8c-7.7-0.8-15.6-0.3-23.2-0.3     c-12.2,0-24.4,0-36.6,0c-3.7,0-7.5,0-11.2,0c-11,0.1-20.7,2.6-30.6,7.2c-22.4,10.2-35.6,34.8-35.8,58.8c0,5.8,0,11.6,0,17.3     c0,23.9,0,47.7,0,71.6c0,17.1-0.1,34.2,0,51.2c0.2,23.8,12.7,46.8,34,58.1c13.6,7.2,27.6,8,42.4,8c12.1,0,24.2,0,36.4,0     c7.7,0,15.5,0.4,23.2-0.1c34.6-2.4,60.8-29.1,62.5-63.7c0.2-4.4,0-8.9,0-13.3c0-42.2,0-84.3,0-126.5c0-1.1,0-2.1,0-3.2     c0-18.3-16.1-35.8-35-35C671.8,257.4,655.8,272,655.8,291.6z"/></g></g><g><g><path d="M430.2,293.2c0,8.8,0,17.6,0,26.4c0,9.1,0.7,18.5-0.3,27.5c0.4-3.1,0.8-6.2,1.3-9.3     c-0.4,2.7-1.1,5.2-2.1,7.7c1.2-2.8,2.4-5.6,3.5-8.4c-1.1,2.4-2.4,4.6-3.9,6.7c1.8-2.4,3.6-4.7,5.5-7.1c-1.6,2-3.4,3.8-5.5,5.5     c2.4-1.8,4.7-3.6,7.1-5.5c-2.1,1.6-4.3,2.8-6.7,3.9c2.8-1.2,5.6-2.4,8.4-3.5c-2.5,1-5,1.7-7.7,2.1c3.1-0.4,6.2-0.8,9.3-1.3     c-10.3,1.2-21.1,0.3-31.4,0.3c-16.1,0-32.1,0-48.2,0c-3.7,0-7.5,0-11.2,0c11.7,11.7,23.3,23.3,35,35c0-32.2,0-64.4,0-96.7     c0-4.6,0-9.1,0-13.7c-11.7,11.7-23.3,23.3-35,35c25.8,0,51.7,0,77.5,0c4.4,0,8.9-0.2,13.3,0.3c-3.1-0.4-6.2-0.8-9.3-1.3     c2.7,0.4,5.2,1.1,7.7,2.1c-2.8-1.2-5.6-2.4-8.4-3.5c2.4,1.1,4.6,2.4,6.7,3.9c-2.4-1.8-4.7-3.6-7.1-5.5c2,1.6,3.8,3.4,5.5,5.5     c-1.8-2.4-3.6-4.7-5.5-7.1c1.6,2.1,2.8,4.3,3.9,6.7c-1.2-2.8-2.4-5.6-3.5-8.4c1,2.5,1.7,5,2.1,7.7c-0.4-3.1-0.8-6.2-1.3-9.3     C430.1,290.5,430.2,291.8,430.2,293.2c0.4,18.3,15.8,35.9,35,35c18.6-0.8,35.4-15.4,35-35c-0.7-29-19-53.6-46.6-62.5     c-8.8-2.8-18.1-2.7-27.2-2.7c-20.2,0-40.3,0-60.5,0c-5.9,0-11.8,0-17.7,0c-18.9,0-35,16-35,35c0,32.2,0,64.4,0,96.7     c0,4.6,0,9.1,0,13.7c0,18.9,16,35,35,35c24.1,0,48.1,0,72.2,0c16.5,0,32.5-0.1,47.4-8.9c15.4-9,27.7-25.2,30.8-42.9     c1.3-7.7,1.5-14.5,1.5-22.1c0-13.7,0-27.4,0-41.1c0-18.3-16.1-35.8-35-35C446.2,259,430.2,273.6,430.2,293.2z"/></g></g><g><g><path d="M383.2,463.4c0-22.6,0-45.2,0-67.8c0-36,0-72,0-108c0-8.2,0-16.5,0-24.7c0-18.3-16.1-35.8-35-35     c-19,0.8-35,15.4-35,35c0,22.6,0,45.2,0,67.8c0,36,0,72,0,108c0,8.2,0,16.5,0,24.7c0,18.3,16.1,35.8,35,35     C367.2,497.6,383.2,483.1,383.2,463.4L383.2,463.4z"/></g></g><g><g><path d="M272.8,463.4c0-22.6,0-45.2,0-67.8c0-36,0-72,0-108c0-8.2,0-16.5,0-24.7c0-18.3-16.1-35.8-35-35     c-19,0.8-35,15.4-35,35c0,22.6,0,45.2,0,67.8c0,36,0,72,0,108c0,8.2,0,16.5,0,24.7c0,18.3,16.1,35.8,35,35     C256.8,497.6,272.8,483.1,272.8,463.4L272.8,463.4z"/></g></g><g><g><path d="M128.6,965.4c19.9,0,39.8,0,59.7,0c31.5,0,63.1,0,94.6,0c7.3,0,14.7,0,22,0c18.3,0,35.8-16.1,35-35     c-0.8-19-15.4-35-35-35c-19.9,0-39.8,0-59.7,0c-31.5,0-63.1,0-94.6,0c-7.3,0-14.7,0-22,0c-18.3,0-35.8,16.1-35,35     C94.4,949.3,109,965.4,128.6,965.4L128.6,965.4z"/></g></g><g><g><path d="M252.7,144.3c0-16.9,0-33.8,0-50.7c0-18.3-16.1-35.8-35-35c-19,0.8-35,15.4-35,35c0,16.9,0,33.8,0,50.7     c0,18.3,16.1,35.8,35,35C236.6,178.5,252.7,163.9,252.7,144.3L252.7,144.3z"/></g></g><g><g><path d="M252.7,930.4c0-11.5,0-23.1,0-34.6c0-27.7,0-55.4,0-83.1c0-33.5,0-67,0-100.5c0-29,0-58,0-87     c0-14.2,0.3-28.3,0-42.5c0-0.2,0-0.4,0-0.6c0-18.3-16.1-35.8-35-35c-19,0.8-35,15.4-35,35c0,11.5,0,23.1,0,34.6     c0,27.7,0,55.4,0,83.1c0,33.5,0,67,0,100.5c0,29,0,58,0,87c0,14.2-0.3,28.3,0,42.5c0,0.2,0,0.4,0,0.6c0,18.3,16.1,35.8,35,35     C236.6,964.5,252.7,950,252.7,930.4L252.7,930.4z"/></g></g></g></svg>