<!DOCTYPE svg PUBLIC "-//W3C//DTD SVG 1.1//EN" "http://www.w3.org/Graphics/SVG/1.1/DTD/svg11.dtd">
<!-- Uploaded to: SVG Repo, www.svgrepo.com, Transformed by: SVG Repo Mixer Tools -->
<svg fill="#c4c0c0" height="800px" width="800px" version="1.1" id="Layer_1" xmlns="http://www.w3.org/2000/svg" xmlns:xlink="http://www.w3.org/1999/xlink" viewBox="0 0 512 512" xml:space="preserve" data-darkreader-inline-fill="" style="--darkreader-inline-fill: var(--darkreader-background-c4c0c0, #3a3f42); --darkreader-inline-stroke: var(--darkreader-text-c4c0c0, #c1bcb4);" transform="matrix(1, 0, 0, 1, 0, 0)" stroke="#c4c0c0" data-darkreader-inline-stroke="">
<g id="SVGRepo_bgCarrier" stroke-width="0"/>
<g id="SVGRepo_tracerCarrier" stroke-linecap="round" stroke-linejoin="round"/>
<g id="SVGRepo_iconCarrier"> <g> <g> <g> <path d="M491.572,231.09L384,277.192v-38.259c0-6.126-6.264-10.257-11.895-7.843l-107.572,46.102v-38.259 c0-6.126-6.264-10.257-11.895-7.843L134.782,281.6h-23.848V145.067h8.533c4.713,0,8.533-3.82,8.533-8.533V102.4 c0-4.713-3.821-8.533-8.533-8.533H34.133c-4.713,0-8.533,3.82-8.533,8.533v34.133c0,4.713,3.82,8.533,8.533,8.533h8.533V281.6 h-25.6c-4.713,0-8.533,3.82-8.533,8.533v213.333c0,4.713,3.82,8.533,8.533,8.533h119.467H256h119.467h119.467 c4.713,0,8.533-3.82,8.533-8.533V238.933C503.467,232.807,497.203,228.677,491.572,231.09z M42.667,110.933h68.267V128H102.4 H51.2h-8.533V110.933z M59.733,145.067h34.133V281.6H59.733V145.067z M25.6,298.667h25.6h51.2H128v196.267H25.6V298.667z M145.067,295.76l102.4-43.886v38.259v204.8h-102.4V295.76z M264.533,295.76l102.4-43.886v38.259v204.8h-102.4V295.76z M486.4,494.933H384V295.76l102.4-43.886V494.933z"/> <path d="M213.333,349.867H179.2c-4.713,0-8.533,3.82-8.533,8.533s3.82,8.533,8.533,8.533h34.133c4.713,0,8.533-3.82,8.533-8.533 S218.046,349.867,213.333,349.867z"/> <path d="M213.333,384H179.2c-4.713,0-8.533,3.821-8.533,8.533c0,4.713,3.82,8.533,8.533,8.533h34.133 c4.713,0,8.533-3.821,8.533-8.533C221.867,387.821,218.046,384,213.333,384z"/> <path d="M213.333,418.133H179.2c-4.713,0-8.533,3.82-8.533,8.533s3.82,8.533,8.533,8.533h34.133c4.713,0,8.533-3.82,8.533-8.533 S218.046,418.133,213.333,418.133z"/> <path d="M213.333,452.267H179.2c-4.713,0-8.533,3.821-8.533,8.533s3.82,8.533,8.533,8.533h34.133c4.713,0,8.533-3.82,8.533-8.533 S218.046,452.267,213.333,452.267z"/> <path d="M213.333,315.733H179.2c-4.713,0-8.533,3.82-8.533,8.533s3.82,8.533,8.533,8.533h34.133c4.713,0,8.533-3.82,8.533-8.533 S218.046,315.733,213.333,315.733z"/> <path d="M332.8,349.867h-34.133c-4.713,0-8.533,3.82-8.533,8.533s3.82,8.533,8.533,8.533H332.8c4.713,0,8.533-3.82,8.533-8.533 S337.513,349.867,332.8,349.867z"/> <path d="M332.8,384h-34.133c-4.713,0-8.533,3.821-8.533,8.533c0,4.713,3.82,8.533,8.533,8.533H332.8 c4.713,0,8.533-3.821,8.533-8.533C341.333,387.821,337.513,384,332.8,384z"/> <path d="M332.8,418.133h-34.133c-4.713,0-8.533,3.82-8.533,8.533s3.82,8.533,8.533,8.533H332.8c4.713,0,8.533-3.82,8.533-8.533 S337.513,418.133,332.8,418.133z"/> <path d="M332.8,452.267h-34.133c-4.713,0-8.533,3.821-8.533,8.533s3.82,8.533,8.533,8.533H332.8c4.713,0,8.533-3.82,8.533-8.533 S337.513,452.267,332.8,452.267z"/> <path d="M332.8,315.733h-34.133c-4.713,0-8.533,3.82-8.533,8.533s3.82,8.533,8.533,8.533H332.8c4.713,0,8.533-3.82,8.533-8.533 S337.513,315.733,332.8,315.733z"/> <path d="M418.133,366.933h34.133c4.713,0,8.533-3.82,8.533-8.533s-3.82-8.533-8.533-8.533h-34.133 c-4.713,0-8.533,3.82-8.533,8.533S413.421,366.933,418.133,366.933z"/> <path d="M418.133,401.067h34.133c4.713,0,8.533-3.821,8.533-8.533c0-4.713-3.82-8.533-8.533-8.533h-34.133 c-4.713,0-8.533,3.821-8.533,8.533C409.6,397.246,413.421,401.067,418.133,401.067z"/> <path d="M418.133,435.2h34.133c4.713,0,8.533-3.82,8.533-8.533s-3.82-8.533-8.533-8.533h-34.133c-4.713,0-8.533,3.82-8.533,8.533 S413.421,435.2,418.133,435.2z"/> <path d="M418.133,469.333h34.133c4.713,0,8.533-3.82,8.533-8.533s-3.82-8.533-8.533-8.533h-34.133 c-4.713,0-8.533,3.821-8.533,8.533S413.421,469.333,418.133,469.333z"/> <path d="M418.133,332.8h34.133c4.713,0,8.533-3.82,8.533-8.533s-3.82-8.533-8.533-8.533h-34.133c-4.713,0-8.533,3.82-8.533,8.533 S413.421,332.8,418.133,332.8z"/> <path d="M93.867,315.733H59.733c-4.713,0-8.533,3.82-8.533,8.533v51.2c0,4.713,3.82,8.533,8.533,8.533h34.133 c4.713,0,8.533-3.82,8.533-8.533v-51.2C102.4,319.554,98.579,315.733,93.867,315.733z M85.333,366.933H68.267V332.8h17.067 V366.933z"/> <path d="M93.867,409.6H59.733c-4.713,0-8.533,3.82-8.533,8.533v51.2c0,4.713,3.82,8.533,8.533,8.533h34.133 c4.713,0,8.533-3.82,8.533-8.533v-51.2C102.4,413.421,98.579,409.6,93.867,409.6z M85.333,460.8H68.267v-34.133h17.067V460.8z"/> <path d="M76.8,76.8c4.713,0,8.533-3.82,8.533-8.533c0-9.367,7.7-17.067,17.067-17.067H128c14.099,0,25.6-11.5,25.6-25.6 C153.6,11.5,142.1,0,128,0h-25.6c-4.713,0-8.533,3.82-8.533,8.533s3.821,8.533,8.533,8.533H128c4.674,0,8.533,3.859,8.533,8.533 c0,4.674-3.859,8.533-8.533,8.533h-25.6c-18.793,0-34.133,15.34-34.133,34.133C68.267,72.979,72.087,76.8,76.8,76.8z"/> </g> </g> </g> </g>
</svg>