<svg version="1.1" id="Layer_1" xmlns="http://www.w3.org/2000/svg" xmlns:xlink="http://www.w3.org/1999/xlink" x="0px" y="0px"
	 width="100%" viewBox="0 0 512 512" enable-background="new 0 0 512 512" xml:space="preserve">
<path fill="#2E2E2E" opacity="1.000000" stroke="none" 
	d="
M1.000004,437.000000 
	C1.000000,317.644653 1.000000,198.289307 1.333080,78.330154 
	C2.167840,76.546883 2.809596,75.406471 3.150840,74.182289 
	C13.274035,37.866440 36.190872,14.163540 72.525162,3.590717 
	C74.132004,3.123146 75.513527,1.881228 77.000000,1.000000 
	C196.355347,1.000000 315.710693,1.000000 435.669861,1.333077 
	C437.453278,2.167314 438.593994,2.807985 439.818146,3.149348 
	C476.131744,13.275611 499.837280,36.190102 510.408966,72.525414 
	C510.876465,74.132210 512.118652,75.513611 513.000000,77.000000 
	C513.000000,196.355347 513.000000,315.710693 512.666931,435.669861 
	C511.832306,437.453186 511.190857,438.593689 510.849518,439.817841 
	C500.723724,476.131104 477.818054,499.845123 441.475464,510.410095 
	C439.868469,510.877258 438.486694,512.119019 437.000000,513.000000 
	C317.644653,513.000000 198.289307,513.000000 78.330101,512.666992 
	C76.546501,511.833099 75.405617,511.192841 74.181396,510.851532 
	C37.866417,500.726288 14.163898,477.808594 3.591028,441.474609 
	C3.123466,439.867828 1.881345,438.486389 1.000004,437.000000 
M171.125854,263.136414 
	C170.919205,253.935883 170.919205,253.935181 161.892838,253.934738 
	C144.149445,253.933868 126.406044,253.932144 108.662643,253.934280 
	C100.330444,253.935272 100.330444,253.938980 99.225319,262.278625 
	C96.992134,265.633545 94.133064,268.745209 92.707008,272.413879 
	C91.360405,275.878113 91.093323,279.927063 91.083702,283.720642 
	C90.978539,325.207947 90.917770,366.695923 91.065704,408.182922 
	C91.124557,424.688080 99.078346,433.672089 115.394035,434.645874 
	C128.837463,435.448181 142.382263,435.173096 155.854507,434.655701 
	C165.018204,434.303833 173.606430,431.357849 177.302795,421.855682 
	C179.063950,417.328308 179.862000,412.153442 179.885574,407.266022 
	C180.082413,366.445862 180.035294,325.624237 179.939148,284.803345 
	C179.929413,280.670715 179.448303,276.466827 178.572205,272.429169 
	C177.718750,268.495789 176.158493,264.661774 171.125854,263.136414 
M221.042664,197.099701 
	C219.206161,198.810898 216.232864,200.246506 215.739120,202.283203 
	C214.028122,209.341339 212.191986,216.603775 212.158005,223.796768 
	C211.881027,282.450745 211.981049,341.106659 212.043518,399.761902 
	C212.048294,404.241333 212.417633,408.750183 213.007309,413.193634 
	C214.784393,426.584351 222.634933,434.261383 236.234558,434.767883 
	C250.377365,435.294586 264.573486,435.340668 278.712250,434.763275 
	C293.403259,434.163330 301.543030,425.251953 301.967224,410.654816 
	C302.169769,403.683563 302.319641,396.709869 302.404236,389.736237 
	C302.627869,371.295593 302.974640,352.854095 302.951538,334.413361 
	C302.925751,313.827789 302.390930,293.242828 302.370056,272.657288 
	C302.353180,256.032745 302.974701,239.406677 302.883850,222.783630 
	C302.852325,217.010239 301.834290,211.183990 300.700500,205.494751 
	C299.905762,201.506805 297.907196,197.927460 293.118744,196.152023 
	C292.910370,188.073990 292.776550,187.938278 284.477875,187.935562 
	C266.900543,187.929794 249.323196,187.932755 231.745850,187.934113 
	C222.317459,187.934830 222.317459,187.936676 221.042664,197.099701 
M343.080353,109.172279 
	C341.360504,110.853142 338.700745,112.252571 338.097321,114.267731 
	C336.301422,120.265205 334.650696,126.454964 334.185242,132.662720 
	C333.653748,139.750626 334.677887,146.939941 334.639771,154.083115 
	C334.544128,172.011612 334.110107,189.938507 334.044434,207.866898 
	C333.995605,221.189346 334.455994,234.513382 334.432770,247.836258 
	C334.390991,271.800873 334.101654,295.764984 334.029968,319.729645 
	C334.002075,329.053162 334.324554,338.377197 334.415527,347.701721 
	C334.618378,368.493134 334.409210,389.296692 335.073517,410.072784 
	C335.563232,425.388855 342.660797,433.284271 358.062195,434.405029 
	C372.628540,435.464996 387.396240,435.321045 401.970123,434.260284 
	C415.655914,433.264191 423.192810,425.112854 423.688843,411.358856 
	C424.515747,388.431366 424.550079,365.470581 424.637482,342.522766 
	C424.698242,326.575745 424.121338,310.626831 424.131958,294.678986 
	C424.145020,275.080231 424.612152,255.481750 424.620026,235.883041 
	C424.626007,220.940613 424.109467,205.998642 424.028320,191.055359 
	C423.917206,170.589035 424.148346,150.119751 423.884979,129.656219 
	C423.824005,124.920517 422.920746,119.998634 421.317047,115.555115 
	C420.383820,112.969360 417.288666,111.163872 415.036102,108.186302 
	C415.233673,103.960518 414.360260,100.126175 409.254395,100.087875 
	C389.104767,99.936691 368.951721,99.935173 348.805389,100.238609 
	C347.188171,100.262978 345.302368,102.827003 344.132141,104.600632 
	C343.417511,105.683670 343.832855,107.512276 343.080353,109.172279 
z"/>
<path fill="#000000" opacity="1.000000" stroke="none" 
	d="
M76.531342,1.000000 
	C75.513527,1.881228 74.132004,3.123146 72.525162,3.590717 
	C36.190872,14.163540 13.274035,37.866440 3.150840,74.182289 
	C2.809596,75.406471 2.167840,76.546883 1.333080,77.863174 
	C1.000000,52.406937 1.000000,26.813871 1.000000,1.000000 
	C26.020462,1.000000 51.041573,1.000000 76.531342,1.000000 
z"/>
<path fill="#000000" opacity="1.000000" stroke="none" 
	d="
M513.000000,76.531342 
	C512.118652,75.513611 510.876465,74.132210 510.408966,72.525414 
	C499.837280,36.190102 476.131744,13.275611 439.818146,3.149348 
	C438.593994,2.807985 437.453278,2.167314 436.136841,1.333077 
	C461.593048,1.000000 487.186127,1.000000 513.000000,1.000000 
	C513.000000,26.020462 513.000000,51.041573 513.000000,76.531342 
z"/>
<path fill="#000000" opacity="1.000000" stroke="none" 
	d="
M437.468658,513.000000 
	C438.486694,512.119019 439.868469,510.877258 441.475464,510.410095 
	C477.818054,499.845123 500.723724,476.131104 510.849518,439.817841 
	C511.190857,438.593689 511.832306,437.453186 512.666931,436.136841 
	C513.000000,461.593048 513.000000,487.186127 513.000000,513.000000 
	C487.979553,513.000000 462.958435,513.000000 437.468658,513.000000 
z"/>
<path fill="#000000" opacity="1.000000" stroke="none" 
	d="
M1.000004,437.468658 
	C1.881345,438.486389 3.123466,439.867828 3.591028,441.474609 
	C14.163898,477.808594 37.866417,500.726288 74.181396,510.851532 
	C75.405617,511.192841 76.546501,511.833099 77.863113,512.666992 
	C52.406933,513.000000 26.813869,513.000000 1.000000,513.000000 
	C1.000000,487.979553 1.000000,462.958435 1.000004,437.468658 
z"/>
<path fill="#77D611" opacity="1.000000" stroke="none" 
	d="
M343.740723,109.006020 
	C343.832855,107.512276 343.417511,105.683670 344.132141,104.600632 
	C345.302368,102.827003 347.188171,100.262978 348.805389,100.238609 
	C368.951721,99.935173 389.104767,99.936691 409.254395,100.087875 
	C414.360260,100.126175 415.233673,103.960518 415.041931,109.061752 
	C415.028900,127.101952 414.995026,144.266708 414.993805,161.431458 
	C414.987946,242.923401 414.988220,324.415344 415.001221,405.907288 
	C415.001709,409.078766 415.411957,412.342773 411.583313,414.341187 
	C410.223694,414.618011 409.271667,414.976166 408.319733,414.975891 
	C387.559479,414.969513 366.799194,414.923309 345.858887,414.544373 
	C345.100525,411.545837 344.019104,408.888245 344.016602,406.229584 
	C343.925385,309.483002 343.935852,212.736374 343.921967,115.989731 
	C343.921631,113.661819 343.803772,111.333923 343.740723,109.006020 
z"/>
<path fill="#71C910" opacity="1.000000" stroke="none" 
	d="
M221.742920,197.006058 
	C222.317459,187.936676 222.317459,187.934830 231.745850,187.934113 
	C249.323196,187.932755 266.900543,187.929794 284.477875,187.935562 
	C292.776550,187.938278 292.910370,188.073990 293.124542,197.044113 
	C293.108643,200.596954 293.068207,203.257690 293.067963,205.918442 
	C293.061798,272.943695 293.083618,339.968964 292.968506,406.994019 
	C292.963989,409.617920 291.656891,412.239594 290.491852,414.897491 
	C268.039642,414.887909 246.052307,414.843140 223.841248,414.489929 
	C223.059723,411.682709 222.018112,409.184692 222.014694,406.685211 
	C221.922745,339.285339 221.939255,271.885315 221.925735,204.485336 
	C221.925232,201.992233 221.806534,199.499146 221.742920,197.006058 
z"/>
<path fill="#64B80B" opacity="1.000000" stroke="none" 
	d="
M99.833000,262.010468 
	C100.330444,253.938980 100.330444,253.935272 108.662643,253.934280 
	C126.406044,253.932144 144.149445,253.933868 161.892838,253.934738 
	C170.919205,253.935181 170.919205,253.935883 171.131851,264.035461 
	C171.114471,267.100037 171.071060,269.265503 171.070709,271.431000 
	C171.063431,316.746643 171.057343,362.062317 171.065887,407.377960 
	C171.066452,410.387024 171.472336,413.509552 167.527725,415.079285 
	C145.709076,415.066467 124.357597,415.091492 102.695038,414.897583 
	C101.592316,412.468719 100.134346,410.265015 100.113487,408.047852 
	C99.932198,388.776215 100.029770,369.502136 100.003670,350.228821 
	C99.963837,320.822662 99.891518,291.416595 99.833000,262.010468 
z"/>
<path fill="#272727" opacity="1.000000" stroke="none" 
	d="
M343.410522,109.089149 
	C343.803772,111.333923 343.921631,113.661819 343.921967,115.989731 
	C343.935852,212.736374 343.925385,309.483002 344.016602,406.229584 
	C344.019104,408.888245 345.100525,411.545837 345.956085,414.888062 
	C348.149200,421.257385 352.403381,424.621796 358.067169,424.865509 
	C371.332733,425.436310 384.627747,425.402313 397.910919,425.408691 
	C400.173157,425.409790 402.505524,424.590820 404.683655,423.810547 
	C409.107330,422.225891 412.083130,419.371643 411.990967,414.255554 
	C415.411957,412.342773 415.001709,409.078766 415.001221,405.907288 
	C414.988220,324.415344 414.987946,242.923401 414.993805,161.431458 
	C414.995026,144.266708 415.028900,127.101952 415.106995,109.472244 
	C417.288666,111.163872 420.383820,112.969360 421.317047,115.555115 
	C422.920746,119.998634 423.824005,124.920517 423.884979,129.656219 
	C424.148346,150.119751 423.917206,170.589035 424.028320,191.055359 
	C424.109467,205.998642 424.626007,220.940613 424.620026,235.883041 
	C424.612152,255.481750 424.145020,275.080231 424.131958,294.678986 
	C424.121338,310.626831 424.698242,326.575745 424.637482,342.522766 
	C424.550079,365.470581 424.515747,388.431366 423.688843,411.358856 
	C423.192810,425.112854 415.655914,433.264191 401.970123,434.260284 
	C387.396240,435.321045 372.628540,435.464996 358.062195,434.405029 
	C342.660797,433.284271 335.563232,425.388855 335.073517,410.072784 
	C334.409210,389.296692 334.618378,368.493134 334.415527,347.701721 
	C334.324554,338.377197 334.002075,329.053162 334.029968,319.729645 
	C334.101654,295.764984 334.390991,271.800873 334.432770,247.836258 
	C334.455994,234.513382 333.995605,221.189346 334.044434,207.866898 
	C334.110107,189.938507 334.544128,172.011612 334.639771,154.083115 
	C334.677887,146.939941 333.653748,139.750626 334.185242,132.662720 
	C334.650696,126.454964 336.301422,120.265205 338.097321,114.267731 
	C338.700745,112.252571 341.360504,110.853142 343.410522,109.089149 
z"/>
<path fill="#282827" opacity="1.000000" stroke="none" 
	d="
M290.956726,414.862305 
	C291.656891,412.239594 292.963989,409.617920 292.968506,406.994019 
	C293.083618,339.968964 293.061798,272.943695 293.067963,205.918442 
	C293.068207,203.257690 293.108643,200.596954 293.194031,197.471603 
	C297.907196,197.927460 299.905762,201.506805 300.700500,205.494751 
	C301.834290,211.183990 302.852325,217.010239 302.883850,222.783630 
	C302.974701,239.406677 302.353180,256.032745 302.370056,272.657288 
	C302.390930,293.242828 302.925751,313.827789 302.951538,334.413361 
	C302.974640,352.854095 302.627869,371.295593 302.404236,389.736237 
	C302.319641,396.709869 302.169769,403.683563 301.967224,410.654816 
	C301.543030,425.251953 293.403259,434.163330 278.712250,434.763275 
	C264.573486,435.340668 250.377365,435.294586 236.234558,434.767883 
	C222.634933,434.261383 214.784393,426.584351 213.007309,413.193634 
	C212.417633,408.750183 212.048294,404.241333 212.043518,399.761902 
	C211.981049,341.106659 211.881027,282.450745 212.158005,223.796768 
	C212.191986,216.603775 214.028122,209.341339 215.739120,202.283203 
	C216.232864,200.246506 219.206161,198.810898 221.392792,197.052887 
	C221.806534,199.499146 221.925232,201.992233 221.925735,204.485336 
	C221.939255,271.885315 221.922745,339.285339 222.014694,406.685211 
	C222.018112,409.184692 223.059723,411.682709 223.900864,414.855164 
	C226.073410,423.397797 232.549866,425.311981 239.063934,425.613312 
	C251.483002,426.187836 263.963135,426.203796 276.384247,425.669067 
	C283.145386,425.377960 288.855042,422.175049 290.956726,414.862305 
z"/>
<path fill="#272727" opacity="1.000000" stroke="none" 
	d="
M99.529160,262.144531 
	C99.891518,291.416595 99.963837,320.822662 100.003670,350.228821 
	C100.029770,369.502136 99.932198,388.776215 100.113487,408.047852 
	C100.134346,410.265015 101.592316,412.468719 102.758118,415.249878 
	C105.170113,418.245575 106.750305,421.648346 109.352798,422.865753 
	C113.278992,424.702393 117.889450,425.636505 122.261574,425.843109 
	C131.362015,426.273071 140.501251,426.136841 149.615356,425.892059 
	C153.043365,425.799988 156.506485,424.988983 159.845352,424.099426 
	C164.374893,422.892639 167.344559,419.984985 167.994904,415.117096 
	C171.472336,413.509552 171.066452,410.387024 171.065887,407.377960 
	C171.057343,362.062317 171.063431,316.746643 171.070709,271.431000 
	C171.071060,269.265503 171.114471,267.100037 171.197601,264.469055 
	C176.158493,264.661774 177.718750,268.495789 178.572205,272.429169 
	C179.448303,276.466827 179.929413,280.670715 179.939148,284.803345 
	C180.035294,325.624237 180.082413,366.445862 179.885574,407.266022 
	C179.862000,412.153442 179.063950,417.328308 177.302795,421.855682 
	C173.606430,431.357849 165.018204,434.303833 155.854507,434.655701 
	C142.382263,435.173096 128.837463,435.448181 115.394035,434.645874 
	C99.078346,433.672089 91.124557,424.688080 91.065704,408.182922 
	C90.917770,366.695923 90.978539,325.207947 91.083702,283.720642 
	C91.093323,279.927063 91.360405,275.878113 92.707008,272.413879 
	C94.133064,268.745209 96.992134,265.633545 99.529160,262.144531 
z"/>
<path fill="#1E1E1E" opacity="1.000000" stroke="none" 
	d="
M411.583313,414.341187 
	C412.083130,419.371643 409.107330,422.225891 404.683655,423.810547 
	C402.505524,424.590820 400.173157,425.409790 397.910919,425.408691 
	C384.627747,425.402313 371.332733,425.436310 358.067169,424.865509 
	C352.403381,424.621796 348.149200,421.257385 346.136108,415.228455 
	C366.799194,414.923309 387.559479,414.969513 408.319733,414.975891 
	C409.271667,414.976166 410.223694,414.618011 411.583313,414.341187 
z"/>
<path fill="#1E1E1E" opacity="1.000000" stroke="none" 
	d="
M290.491852,414.897491 
	C288.855042,422.175049 283.145386,425.377960 276.384247,425.669067 
	C263.963135,426.203796 251.483002,426.187836 239.063934,425.613312 
	C232.549866,425.311981 226.073410,423.397797 224.124588,415.163635 
	C246.052307,414.843140 268.039642,414.887909 290.491852,414.897491 
z"/>
<path fill="#1E1E1E" opacity="1.000000" stroke="none" 
	d="
M167.527725,415.079285 
	C167.344559,419.984985 164.374893,422.892639 159.845352,424.099426 
	C156.506485,424.988983 153.043365,425.799988 149.615356,425.892059 
	C140.501251,426.136841 131.362015,426.273071 122.261574,425.843109 
	C117.889450,425.636505 113.278992,424.702393 109.352798,422.865753 
	C106.750305,421.648346 105.170113,418.245575 103.069199,415.468811 
	C124.357597,415.091492 145.709076,415.066467 167.527725,415.079285 
z"/>
</svg>