<svg version="1.1" id="Layer_1" xmlns="http://www.w3.org/2000/svg" xmlns:xlink="http://www.w3.org/1999/xlink" x="0px" y="0px"
	 width="100%" viewBox="0 0 640 480" enable-background="new 0 0 640 480" xml:space="preserve">
<path fill="#FEFFFF" opacity="1.000000" stroke="none" 
	d="
M455.000000,481.000000 
	C303.333374,481.000000 152.166733,481.000000 1.000081,481.000000 
	C1.000054,321.000061 1.000054,161.000153 1.000027,1.000167 
	C214.333206,1.000111 427.666412,1.000111 640.999756,1.000056 
	C640.999817,160.999832 640.999817,320.999664 640.999878,480.999756 
	C579.166687,481.000000 517.333313,481.000000 455.000000,481.000000 
M164.194077,396.441833 
	C164.479843,396.614838 164.765610,396.787842 165.000610,396.999634 
	C165.000610,396.999634 165.039062,396.948578 165.194351,397.441010 
	C165.480164,397.614197 165.765976,397.787415 166.000610,397.999786 
	C166.000610,397.999786 166.039459,397.948303 166.188995,398.438751 
	C166.469254,398.617584 166.749512,398.796417 166.999390,399.000000 
	C166.999390,399.000000 167.027512,398.971466 167.052048,399.666931 
	C170.766510,403.888489 174.480957,408.110046 178.393005,412.556183 
	C179.090378,412.343353 180.180405,412.010742 181.224121,411.674744 
	C181.224121,411.674744 181.250000,411.712952 181.387085,412.329987 
	C181.765976,412.459351 182.144852,412.588715 182.818024,412.759735 
	C182.818024,412.759735 183.004135,412.991486 183.065552,413.714050 
	C184.165054,414.410767 185.264557,415.107483 186.736572,415.913788 
	C186.736572,415.913788 186.987976,416.209686 187.180756,416.617950 
	C187.384583,416.866638 187.647064,416.999573 187.997696,416.996887 
	C187.997696,416.996887 187.982590,417.028381 187.984543,417.778961 
	C191.141220,422.370178 195.855103,424.506134 200.997345,425.994293 
	C200.997345,425.994293 200.995865,426.029358 201.259918,426.509827 
	C201.594604,426.624817 201.929306,426.739807 202.659805,426.930023 
	C202.659805,426.930023 202.966537,427.191284 203.051636,427.870819 
	C205.894699,430.241913 208.389542,433.401398 211.644852,434.839203 
	C222.255753,439.525848 232.164429,445.769073 243.525848,448.834259 
	C256.297455,452.279816 268.761475,457.130493 281.695435,459.631805 
	C293.635376,461.940918 306.024567,462.814636 318.208130,462.754089 
	C333.822754,462.676544 349.548920,462.279694 364.832886,458.063751 
	C374.503632,455.396210 384.258850,453.036438 393.954346,450.456573 
	C399.850861,448.887543 405.705811,447.162231 411.388672,445.560944 
	C412.153687,444.668640 413.062683,443.086731 414.415344,442.136017 
	C417.506958,439.963013 420.815582,438.098724 424.065125,436.019836 
	C424.065125,436.019836 424.149170,436.061554 424.938812,436.068634 
	C431.077179,435.397308 435.639771,432.213837 439.113098,427.061798 
	C439.113098,427.061798 439.267700,427.091858 439.812103,427.054108 
	C440.211731,426.720947 440.611359,426.387787 441.009460,425.996307 
	C441.009460,425.996307 441.058228,426.028320 441.851532,426.055786 
	C445.604401,424.124664 449.420441,422.301208 453.054749,420.168091 
	C453.749390,419.760345 453.727509,418.131775 454.009857,416.999939 
	C454.009857,416.999939 454.068390,417.040985 454.789490,417.042572 
	C456.188568,415.688690 457.587646,414.334808 459.273285,412.550507 
	C459.710571,412.286499 460.147858,412.022461 461.324738,411.948151 
	C462.540100,412.617401 463.755493,413.286652 464.190369,413.526123 
	C465.703033,411.159332 466.819946,409.130005 468.207153,407.306305 
	C470.371246,404.461304 472.718628,401.755707 475.000000,399.000000 
	C475.000000,399.000000 474.990723,398.988983 475.468170,398.817841 
	C475.638794,398.536285 475.809448,398.254761 476.000000,398.000000 
	C476.000000,398.000000 475.973083,397.980194 476.456268,397.819305 
	C476.630524,397.538361 476.804810,397.257416 477.000000,397.000000 
	C477.000000,397.000000 476.976318,396.979095 477.457367,396.820618 
	C477.634125,396.543488 477.810852,396.266388 478.000000,396.000000 
	C478.000000,396.000000 477.989197,395.987671 478.469421,395.817810 
	C478.637787,395.533722 478.806152,395.249634 479.000000,395.000031 
	C479.000000,395.000031 478.966736,394.972351 479.646790,394.917603 
	C481.270630,393.598724 483.204254,392.520538 484.454559,390.911438 
	C487.157806,387.432434 489.510803,383.681274 491.994171,379.995911 
	C491.994171,379.995911 492.041321,379.999512 492.502777,379.812378 
	C492.791534,379.600189 492.942383,379.315033 493.000000,378.997559 
	C493.000000,378.997559 492.956146,378.952728 493.655365,378.893372 
	C494.051025,378.162292 494.446686,377.431183 494.978912,376.179840 
	C495.335846,375.793793 495.692780,375.407745 496.771912,374.952087 
	C499.348145,373.693237 501.731171,372.306122 500.965363,368.222656 
	C501.314728,367.814514 501.664093,367.406342 502.487152,366.769653 
	C502.604095,366.452118 502.721008,366.134583 502.969971,365.967682 
	C502.969971,365.967682 502.811127,365.845703 503.616913,365.928558 
	C505.319733,364.670227 507.760437,363.780304 508.603119,362.092560 
	C513.318665,352.647797 518.004883,343.156921 522.016052,333.400177 
	C526.661194,322.101532 530.648132,310.529877 534.814575,299.038208 
	C536.438171,294.559998 537.803162,289.986511 539.222351,285.436584 
	C539.759644,283.713806 540.363953,281.952332 540.488159,280.177063 
	C540.612854,278.393585 539.870605,276.540405 540.046570,274.771332 
	C540.547119,269.738068 541.793762,264.741821 541.897400,259.713501 
	C542.168518,246.560730 541.991211,233.398621 541.980530,220.240234 
	C541.979492,218.910065 542.365417,217.304672 541.773682,216.294586 
	C537.978333,209.816559 541.148132,202.362747 538.245728,195.480682 
	C534.649963,186.954636 532.809753,177.667725 530.450745,168.646851 
	C528.439453,160.955917 521.839233,153.976944 526.573486,145.150955 
	C526.627258,145.050659 526.227539,144.707092 525.846436,144.240875 
	C524.768250,145.107208 523.701172,145.964676 522.745300,146.732742 
	C520.742615,144.638840 518.975891,142.791733 516.775085,140.387436 
	C503.735046,115.281265 486.875458,93.149002 465.260895,74.804657 
	C413.679169,31.027176 354.158691,13.536149 287.367371,23.443233 
	C234.170212,31.333920 189.177902,55.930279 154.584900,97.255043 
	C105.415382,155.992920 89.724648,223.191467 108.820374,297.627777 
	C112.878365,313.446045 120.255333,328.412872 126.025833,344.631622 
	C126.736244,350.796173 129.383759,355.773926 135.101212,359.314545 
	C135.101212,359.314545 135.174103,359.691986 135.100952,360.423798 
	C136.051285,361.621582 137.001633,362.819397 138.428192,364.300995 
	C138.654251,364.795685 138.880310,365.290375 139.152542,366.310486 
	C139.402435,366.541992 139.652328,366.773529 140.161316,367.230774 
	C140.161316,367.230774 140.235031,367.566437 140.135040,368.352295 
	C140.655731,371.776337 141.923004,374.558594 146.149124,375.239777 
	C146.149124,375.239777 146.229080,375.573273 146.120773,376.313232 
	C147.080902,377.204224 148.041016,378.095245 149.003052,378.997498 
	C149.003052,378.997498 149.012360,379.003571 149.022888,379.636658 
	C149.459198,380.001709 149.895493,380.366760 150.039902,380.748383 
	C150.039902,380.748383 150.333603,380.711090 150.143463,381.474152 
	C154.440414,385.972229 158.737350,390.470306 163.000748,395.001007 
	C163.000748,395.001007 163.028290,394.964050 163.192566,395.450684 
	C163.478302,395.621002 163.764038,395.791351 164.000000,395.999756 
	C164.000000,395.999756 164.038071,395.949921 164.194077,396.441833 
z"/>
<path fill="#5367FD" opacity="1.000000" stroke="none" 
	d="
M126.103165,343.771973 
	C120.255333,328.412872 112.878365,313.446045 108.820374,297.627777 
	C89.724648,223.191467 105.415382,155.992920 154.584900,97.255043 
	C189.177902,55.930279 234.170212,31.333920 287.367371,23.443233 
	C354.158691,13.536149 413.679169,31.027176 465.260895,74.804657 
	C486.875458,93.149002 503.735046,115.281265 516.980225,140.932343 
	C517.305115,141.975220 517.424927,142.473175 517.211548,143.199829 
	C515.929749,144.104584 514.890198,144.683258 514.045837,145.471100 
	C498.721710,159.769501 483.477722,174.154236 468.101624,188.396408 
	C447.383453,207.586655 426.565979,226.669693 405.793976,245.801804 
	C396.498077,254.363815 387.275513,263.006897 377.895599,271.475769 
	C370.650177,278.017517 356.736359,279.455719 348.391785,274.597168 
	C328.730652,263.149689 309.207886,251.460342 289.412933,240.250610 
	C285.373932,237.963364 280.466949,236.642090 275.820038,236.118301 
	C267.312866,235.159424 260.668121,239.671631 254.300293,244.819839 
	C236.616501,259.116608 218.784500,273.230316 200.985367,287.384064 
	C186.046036,299.263733 171.038635,311.057953 156.122879,322.966980 
	C146.799698,330.410828 137.590485,337.997375 128.061859,345.423096 
	C127.230103,344.808197 126.666634,344.290100 126.103165,343.771973 
z"/>
<path fill="#01F2BB" opacity="1.000000" stroke="none" 
	d="
M128.330139,345.519897 
	C137.590485,337.997375 146.799698,330.410828 156.122879,322.966980 
	C171.038635,311.057953 186.046036,299.263733 200.985367,287.384064 
	C218.784500,273.230316 236.616501,259.116608 254.300293,244.819839 
	C260.668121,239.671631 267.312866,235.159424 275.820038,236.118301 
	C280.466949,236.642090 285.373932,237.963364 289.412933,240.250610 
	C309.207886,251.460342 328.730652,263.149689 348.391785,274.597168 
	C356.736359,279.455719 370.650177,278.017517 377.895599,271.475769 
	C387.275513,263.006897 396.498077,254.363815 405.793976,245.801804 
	C426.565979,226.669693 447.383453,207.586655 468.101624,188.396408 
	C483.477722,174.154236 498.721710,159.769501 514.045837,145.471100 
	C514.890198,144.683258 515.929749,144.104584 517.449463,143.511353 
	C529.042908,164.585999 535.393677,187.086029 538.831299,210.390305 
	C542.305786,233.944199 541.624695,257.468628 537.248169,280.940704 
	C532.499817,306.406952 523.589233,330.227814 510.496918,352.533569 
	C507.903320,356.952362 505.371490,361.407410 502.811127,365.845703 
	C502.811127,365.845703 502.969971,365.967682 502.661102,365.999084 
	C502.239288,366.353027 502.126373,366.675598 502.013458,366.998169 
	C501.664093,367.406342 501.314728,367.814514 500.610291,368.619934 
	C498.853363,371.018707 497.451538,373.020172 496.049713,375.021667 
	C495.692780,375.407745 495.335846,375.793793 494.622620,376.558167 
	C493.829590,377.608582 493.392853,378.280670 492.956146,378.952728 
	C492.956146,378.952728 493.000000,378.997559 492.738983,379.062805 
	C492.332428,379.418518 492.186890,379.709015 492.041321,379.999512 
	C492.041321,379.999512 491.994171,379.995911 491.691315,380.139771 
	C487.247894,385.179871 483.107330,390.076111 478.966736,394.972351 
	C478.966736,394.972351 479.000000,395.000031 478.736267,395.053284 
	C478.311432,395.400238 478.150330,395.693939 477.989197,395.987671 
	C477.989197,395.987671 478.000000,396.000000 477.739990,396.054199 
	C477.312073,396.398621 477.144196,396.688873 476.976318,396.979095 
	C476.976318,396.979095 477.000000,397.000000 476.735504,397.051819 
	C476.305023,397.395844 476.139069,397.688019 475.973083,397.980194 
	C475.973083,397.980194 476.000000,398.000000 475.735779,398.049316 
	C475.311310,398.395386 475.151001,398.692200 474.990723,398.988983 
	C474.990723,398.988983 475.000000,399.000000 474.665649,399.066528 
	C469.749237,403.341522 465.167175,407.549957 460.585144,411.758423 
	C460.147858,412.022461 459.710571,412.286499 458.805664,412.816162 
	C456.914825,414.401550 455.491608,415.721252 454.068359,417.040955 
	C454.068390,417.040985 454.009857,416.999939 453.679626,417.077148 
	C449.252350,420.112335 445.155273,423.070343 441.058228,426.028320 
	C441.058228,426.028320 441.009460,425.996307 440.734680,426.015533 
	C440.062531,426.387146 439.665131,426.739502 439.267700,427.091858 
	C439.267700,427.091858 439.113098,427.061798 438.746216,427.170898 
	C433.635925,430.207153 428.892548,433.134369 424.149170,436.061554 
	C424.149170,436.061554 424.065125,436.019836 423.688110,436.071960 
	C393.540710,451.221588 362.094421,459.922150 328.637939,461.057281 
	C300.391296,462.015656 272.772064,458.334595 246.486694,447.931427 
	C231.578964,442.031281 217.447571,434.169556 202.966537,427.191284 
	C202.966537,427.191284 202.659805,426.930023 202.331024,426.650452 
	C201.666779,426.257019 201.331314,426.143188 200.995865,426.029358 
	C200.995865,426.029358 200.997345,425.994293 200.826752,425.710968 
	C196.431625,422.627899 192.207108,419.828125 187.982590,417.028381 
	C187.982590,417.028381 187.997696,416.996887 187.912842,416.777466 
	C187.624985,416.256317 187.344971,416.140198 186.987976,416.209686 
	C186.987976,416.209686 186.736572,415.913788 186.424683,415.556824 
	C185.076569,414.463745 184.040344,413.727600 183.004135,412.991486 
	C183.004135,412.991486 182.818024,412.759735 182.532501,412.488068 
	C181.914642,412.048584 181.582321,411.880768 181.250000,411.712952 
	C181.250000,411.712952 181.224121,411.674744 181.129852,411.374084 
	C176.366226,407.039429 171.696869,403.005463 167.027512,398.971466 
	C167.027512,398.971466 166.999390,399.000000 166.952133,398.732788 
	C166.616409,398.293182 166.327927,398.120728 166.039459,397.948303 
	C166.039459,397.948303 166.000610,397.999786 165.962219,397.724457 
	C165.628906,397.282288 165.333984,397.115448 165.039062,396.948578 
	C165.039062,396.948578 165.000610,396.999634 164.961975,396.724487 
	C164.628250,396.282867 164.333160,396.116394 164.038071,395.949921 
	C164.038071,395.949921 164.000000,395.999756 163.958618,395.727081 
	C163.620911,395.290955 163.324600,395.127502 163.028290,394.964050 
	C163.028290,394.964050 163.000748,395.001007 162.938644,394.658539 
	C158.695572,389.781067 154.514587,385.246094 150.333603,380.711090 
	C150.333603,380.711090 150.039902,380.748383 150.138214,380.455383 
	C149.828461,379.776093 149.420410,379.389832 149.012360,379.003571 
	C149.012360,379.003571 149.003052,378.997498 148.961105,378.669220 
	C148.022476,377.418396 147.125778,376.495819 146.229095,375.573242 
	C146.229080,375.573273 146.149124,375.239777 145.972183,374.801514 
	C143.941849,372.097656 142.088440,369.832062 140.235031,367.566437 
	C140.235031,367.566437 140.161316,367.230774 140.016479,366.853546 
	C139.616562,366.245911 139.361481,366.015472 139.106384,365.785034 
	C138.880310,365.290375 138.654251,364.795685 138.149017,363.826996 
	C136.971283,362.132660 136.072693,360.912323 135.174103,359.691986 
	C135.174103,359.691986 135.101212,359.314545 134.950012,358.824524 
	C132.642578,354.062988 130.486359,349.791443 128.330139,345.519897 
z"/>
<path fill="#DAFAF9" opacity="1.000000" stroke="none" 
	d="
M503.214020,365.887146 
	C505.371490,361.407410 507.903320,356.952362 510.496918,352.533569 
	C523.589233,330.227814 532.499817,306.406952 537.248169,280.940704 
	C541.624695,257.468628 542.305786,233.944199 538.831299,210.390305 
	C535.393677,187.086029 529.042908,164.585999 517.782654,143.282654 
	C517.424927,142.473175 517.305115,141.975220 517.197266,141.210938 
	C518.975891,142.791733 520.742615,144.638840 522.745300,146.732742 
	C523.701172,145.964676 524.768250,145.107208 525.846436,144.240875 
	C526.227539,144.707092 526.627258,145.050659 526.573486,145.150955 
	C521.839233,153.976944 528.439453,160.955917 530.450745,168.646851 
	C532.809753,177.667725 534.649963,186.954636 538.245728,195.480682 
	C541.148132,202.362747 537.978333,209.816559 541.773682,216.294586 
	C542.365417,217.304672 541.979492,218.910065 541.980530,220.240234 
	C541.991211,233.398621 542.168518,246.560730 541.897400,259.713501 
	C541.793762,264.741821 540.547119,269.738068 540.046570,274.771332 
	C539.870605,276.540405 540.612854,278.393585 540.488159,280.177063 
	C540.363953,281.952332 539.759644,283.713806 539.222351,285.436584 
	C537.803162,289.986511 536.438171,294.559998 534.814575,299.038208 
	C530.648132,310.529877 526.661194,322.101532 522.016052,333.400177 
	C518.004883,343.156921 513.318665,352.647797 508.603119,362.092560 
	C507.760437,363.780304 505.319733,364.670227 503.214020,365.887146 
z"/>
<path fill="#D3FCFA" opacity="1.000000" stroke="none" 
	d="
M203.009094,427.531067 
	C217.447571,434.169556 231.578964,442.031281 246.486694,447.931427 
	C272.772064,458.334595 300.391296,462.015656 328.637939,461.057281 
	C362.094421,459.922150 393.540710,451.221588 423.673584,436.116516 
	C420.815582,438.098724 417.506958,439.963013 414.415344,442.136017 
	C413.062683,443.086731 412.153687,444.668640 411.388672,445.560944 
	C405.705811,447.162231 399.850861,448.887543 393.954346,450.456573 
	C384.258850,453.036438 374.503632,455.396210 364.832886,458.063751 
	C349.548920,462.279694 333.822754,462.676544 318.208130,462.754089 
	C306.024567,462.814636 293.635376,461.940918 281.695435,459.631805 
	C268.761475,457.130493 256.297455,452.279816 243.525848,448.834259 
	C232.164429,445.769073 222.255753,439.525848 211.644852,434.839203 
	C208.389542,433.401398 205.894699,430.241913 203.009094,427.531067 
z"/>
<path fill="#D3FCFA" opacity="1.000000" stroke="none" 
	d="
M460.954956,411.853271 
	C465.167175,407.549957 469.749237,403.341522 474.659790,399.062042 
	C472.718628,401.755707 470.371246,404.461304 468.207153,407.306305 
	C466.819946,409.130005 465.703033,411.159332 464.190369,413.526123 
	C463.755493,413.286652 462.540100,412.617401 460.954956,411.853271 
z"/>
<path fill="#D3FCFA" opacity="1.000000" stroke="none" 
	d="
M167.039780,399.319214 
	C171.696869,403.005463 176.366226,407.039429 181.153015,411.375763 
	C180.180405,412.010742 179.090378,412.343353 178.393005,412.556183 
	C174.480957,408.110046 170.766510,403.888489 167.039780,399.319214 
z"/>
<path fill="#D3FCFA" opacity="1.000000" stroke="none" 
	d="
M150.238525,381.092621 
	C154.514587,385.246094 158.695572,389.781067 162.955414,394.642212 
	C158.737350,390.470306 154.440414,385.972229 150.238525,381.092621 
z"/>
<path fill="#D3FCFA" opacity="1.000000" stroke="none" 
	d="
M128.061859,345.423096 
	C130.486359,349.791443 132.642578,354.062988 134.822220,358.680969 
	C129.383759,355.773926 126.736244,350.796173 126.064499,344.201782 
	C126.666634,344.290100 127.230103,344.808197 128.061859,345.423096 
z"/>
<path fill="#D3FCFA" opacity="1.000000" stroke="none" 
	d="
M479.306763,394.945007 
	C483.107330,390.076111 487.247894,385.179871 491.697754,380.162537 
	C489.510803,383.681274 487.157806,387.432434 484.454559,390.911438 
	C483.204254,392.520538 481.270630,393.598724 479.306763,394.945007 
z"/>
<path fill="#D3FCFA" opacity="1.000000" stroke="none" 
	d="
M424.544006,436.065094 
	C428.892548,433.134369 433.635925,430.207153 438.719971,427.245148 
	C435.639771,432.213837 431.077179,435.397308 424.544006,436.065094 
z"/>
<path fill="#D3FCFA" opacity="1.000000" stroke="none" 
	d="
M441.454895,426.042053 
	C445.155273,423.070343 449.252350,420.112335 453.692810,417.110413 
	C453.727509,418.131775 453.749390,419.760345 453.054749,420.168091 
	C449.420441,422.301208 445.604401,424.124664 441.454895,426.042053 
z"/>
<path fill="#D3FCFA" opacity="1.000000" stroke="none" 
	d="
M187.983566,417.403687 
	C192.207108,419.828125 196.431625,422.627899 200.811981,425.720459 
	C195.855103,424.506134 191.141220,422.370178 187.983566,417.403687 
z"/>
<path fill="#D3FCFA" opacity="1.000000" stroke="none" 
	d="
M140.185028,367.959351 
	C142.088440,369.832062 143.941849,372.097656 145.835968,374.697388 
	C141.923004,374.558594 140.655731,371.776337 140.185028,367.959351 
z"/>
<path fill="#D3FCFA" opacity="1.000000" stroke="none" 
	d="
M496.410828,374.986877 
	C497.451538,373.020172 498.853363,371.018707 500.565948,368.893372 
	C501.731171,372.306122 499.348145,373.693237 496.410828,374.986877 
z"/>
<path fill="#D3FCFA" opacity="1.000000" stroke="none" 
	d="
M454.428925,417.041748 
	C455.491608,415.721252 456.914825,414.401550 458.662415,413.031372 
	C457.587646,414.334808 456.188568,415.688690 454.428925,417.041748 
z"/>
<path fill="#D3FCFA" opacity="1.000000" stroke="none" 
	d="
M135.137527,360.057892 
	C136.072693,360.912323 136.971283,362.132660 137.910919,363.685089 
	C137.001633,362.819397 136.051285,361.621582 135.137527,360.057892 
z"/>
<path fill="#D3FCFA" opacity="1.000000" stroke="none" 
	d="
M146.174927,375.943237 
	C147.125778,376.495819 148.022476,377.418396 148.960144,378.663574 
	C148.041016,378.095245 147.080902,377.204224 146.174927,375.943237 
z"/>
<path fill="#D3FCFA" opacity="1.000000" stroke="none" 
	d="
M183.034851,413.352783 
	C184.040344,413.727600 185.076569,414.463745 186.238434,415.502014 
	C185.264557,415.107483 184.165054,414.410767 183.034851,413.352783 
z"/>
<path fill="#D3FCFA" opacity="1.000000" stroke="none" 
	d="
M493.305756,378.923035 
	C493.392853,378.280670 493.829590,377.608582 494.554321,376.818298 
	C494.446686,377.431183 494.051025,378.162292 493.305756,378.923035 
z"/>
<path fill="#D3FCFA" opacity="1.000000" stroke="none" 
	d="
M439.539917,427.072998 
	C439.665131,426.739502 440.062531,426.387146 440.735474,426.044678 
	C440.611359,426.387787 440.211731,426.720947 439.539917,427.072998 
z"/>
<path fill="#D3FCFA" opacity="1.000000" stroke="none" 
	d="
M149.017624,379.320129 
	C149.420410,379.389832 149.828461,379.776093 150.284149,380.447083 
	C149.895493,380.366760 149.459198,380.001709 149.017624,379.320129 
z"/>
<path fill="#D3FCFA" opacity="1.000000" stroke="none" 
	d="
M476.214691,397.899750 
	C476.139069,397.688019 476.305023,397.395844 476.725037,397.040039 
	C476.804810,397.257416 476.630524,397.538361 476.214691,397.899750 
z"/>
<path fill="#D3FCFA" opacity="1.000000" stroke="none" 
	d="
M166.114227,398.193542 
	C166.327927,398.120728 166.616409,398.293182 166.967316,398.720398 
	C166.749512,398.796417 166.469254,398.617584 166.114227,398.193542 
z"/>
<path fill="#D3FCFA" opacity="1.000000" stroke="none" 
	d="
M475.229431,398.903412 
	C475.151001,398.692200 475.311310,398.395386 475.725830,398.035919 
	C475.809448,398.254761 475.638794,398.536285 475.229431,398.903412 
z"/>
<path fill="#D3FCFA" opacity="1.000000" stroke="none" 
	d="
M478.229309,395.902740 
	C478.150330,395.693939 478.311432,395.400238 478.723511,395.036041 
	C478.806152,395.249634 478.637787,395.533722 478.229309,395.902740 
z"/>
<path fill="#D3FCFA" opacity="1.000000" stroke="none" 
	d="
M502.250305,366.883911 
	C502.126373,366.675598 502.239288,366.353027 502.595093,365.923767 
	C502.721008,366.134583 502.604095,366.452118 502.250305,366.883911 
z"/>
<path fill="#D3FCFA" opacity="1.000000" stroke="none" 
	d="
M181.318542,412.021484 
	C181.582321,411.880768 181.914642,412.048584 182.385345,412.467255 
	C182.144852,412.588715 181.765976,412.459351 181.318542,412.021484 
z"/>
<path fill="#D3FCFA" opacity="1.000000" stroke="none" 
	d="
M165.116699,397.194794 
	C165.333984,397.115448 165.628906,397.282288 165.987808,397.704865 
	C165.765976,397.787415 165.480164,397.614197 165.116699,397.194794 
z"/>
<path fill="#D3FCFA" opacity="1.000000" stroke="none" 
	d="
M163.110428,395.207367 
	C163.324600,395.127502 163.620911,395.290955 163.983505,395.708069 
	C163.764038,395.791351 163.478302,395.621002 163.110428,395.207367 
z"/>
<path fill="#D3FCFA" opacity="1.000000" stroke="none" 
	d="
M187.084366,416.413818 
	C187.344971,416.140198 187.624985,416.256317 187.898102,416.787415 
	C187.647064,416.999573 187.384583,416.866638 187.084366,416.413818 
z"/>
<path fill="#D3FCFA" opacity="1.000000" stroke="none" 
	d="
M477.216858,396.899841 
	C477.144196,396.688873 477.312073,396.398621 477.733765,396.048828 
	C477.810852,396.266388 477.634125,396.543488 477.216858,396.899841 
z"/>
<path fill="#D3FCFA" opacity="1.000000" stroke="none" 
	d="
M492.272064,379.905945 
	C492.186890,379.709015 492.332428,379.418518 492.716644,379.042450 
	C492.942383,379.315033 492.791534,379.600189 492.272064,379.905945 
z"/>
<path fill="#D3FCFA" opacity="1.000000" stroke="none" 
	d="
M201.127899,426.269592 
	C201.331314,426.143188 201.666779,426.257019 202.133118,426.612823 
	C201.929306,426.739807 201.594604,426.624817 201.127899,426.269592 
z"/>
<path fill="#D3FCFA" opacity="1.000000" stroke="none" 
	d="
M139.129456,366.047760 
	C139.361481,366.015472 139.616562,366.245911 139.886932,366.740662 
	C139.652328,366.773529 139.402435,366.541992 139.129456,366.047760 
z"/>
<path fill="#D3FCFA" opacity="1.000000" stroke="none" 
	d="
M164.116074,396.195862 
	C164.333160,396.116394 164.628250,396.282867 164.987366,396.705078 
	C164.765610,396.787842 164.479843,396.614838 164.116074,396.195862 
z"/>
</svg>