<svg version="1.1" id="Layer_1" xmlns="http://www.w3.org/2000/svg" xmlns:xlink="http://www.w3.org/1999/xlink" x="0px" y="0px"
	 width="100%" viewBox="0 0 225 225" enable-background="new 0 0 225 225" xml:space="preserve">
<path fill="#006AFF" opacity="1.000000" stroke="none" 
	d="
M129.000000,226.000000 
	C86.000000,226.000000 43.500004,226.000000 1.000006,226.000000 
	C1.000004,151.000000 1.000004,76.000015 1.000002,1.000016 
	C75.999992,1.000010 150.999985,1.000010 225.999969,1.000005 
	C225.999985,75.999985 225.999985,150.999969 226.000000,225.999969 
	C193.833328,226.000000 161.666672,226.000000 129.000000,226.000000 
M128.026230,28.976212 
	C128.026230,28.976212 128.025208,29.123838 127.332672,28.646301 
	C125.875099,28.431198 124.417824,28.030848 122.959915,28.028576 
	C98.247169,27.990059 73.534309,27.984793 48.821617,28.038307 
	C47.215515,28.041782 45.610569,28.580948 43.516174,29.122795 
	C43.304691,29.416250 43.093208,29.709707 42.485733,30.725277 
	C42.675819,38.479500 42.865910,46.233727 43.978344,54.118835 
	C61.415642,54.132767 78.853027,54.125843 96.290085,54.197220 
	C97.809166,54.203442 99.326149,54.724960 100.702576,55.250313 
	C100.623268,55.539768 100.698372,55.790684 101.106537,56.925053 
	C101.106537,77.989479 101.106537,99.053902 101.106537,121.439865 
	C110.594910,109.881767 119.193924,99.407021 128.307678,88.287697 
	C128.536179,87.168121 128.960968,86.049034 128.963745,84.928886 
	C129.006454,67.685356 129.020233,50.441582 128.946487,33.198261 
	C128.940460,31.788675 128.250687,30.382010 128.026230,28.976212 
M68.204559,197.082794 
	C68.204559,189.173660 68.204559,181.264542 68.204559,173.012314 
	C59.528206,173.012314 51.292534,173.012314 42.594429,173.698105 
	C42.690426,181.464417 42.786423,189.230713 43.126915,197.489105 
	C43.419601,197.702179 43.712292,197.915237 44.728535,198.520538 
	C52.486843,198.347549 60.245148,198.174561 68.204559,197.082794 
M127.941986,109.390427 
	C127.847382,108.828827 127.752777,108.267220 127.559410,107.119385 
	C126.659866,108.362411 126.108978,109.123642 125.038841,110.257530 
	C117.896996,119.029907 110.638382,127.711700 103.706635,136.647064 
	C102.226944,138.554474 101.239326,141.373810 101.207466,143.788605 
	C100.992378,160.092865 101.086960,176.401337 101.109062,192.708405 
	C101.111229,194.309418 101.300720,195.910156 101.408585,197.594055 
	C110.443390,197.594055 118.996155,197.594055 127.846695,197.594055 
	C127.846695,168.152649 127.846695,139.070770 127.941986,109.390427 
M158.862732,39.525887 
	C158.862732,44.274460 158.862732,49.023033 158.862732,53.674393 
	C167.670624,53.674393 175.566681,53.674393 183.537796,53.674393 
	C183.537796,45.358238 183.537796,37.463383 183.537796,29.372070 
	C175.262405,29.372070 167.364456,29.372070 158.862564,29.372070 
	C158.862564,32.639874 158.862564,35.590622 158.862732,39.525887 
z"/>
<path fill="#FDFEFF" opacity="1.000000" stroke="none" 
	d="
M42.881721,30.003162 
	C43.093208,29.709707 43.304691,29.416250 44.225761,29.060431 
	C72.631966,29.039991 100.328583,29.081915 128.025208,29.123838 
	C128.025208,29.123838 128.026230,28.976212 128.006653,29.448540 
	C127.922356,49.591339 127.857643,69.261810 127.792938,88.932281 
	C119.193924,99.407021 110.594910,109.881767 101.106537,121.439865 
	C101.106537,99.053902 101.106537,77.989479 101.079361,56.208008 
	C100.982834,55.329685 100.913467,55.168407 100.844101,55.007126 
	C99.326149,54.724960 97.809166,54.203442 96.290085,54.197220 
	C78.853027,54.125843 61.415642,54.132767 43.510509,53.585472 
	C42.989021,45.369129 42.935371,37.686146 42.881721,30.003162 
z"/>
<path fill="#00D585" opacity="1.000000" stroke="none" 
	d="
M127.846695,109.988907 
	C127.846695,139.070770 127.846695,168.152649 127.846695,197.594055 
	C118.996155,197.594055 110.443390,197.594055 101.408585,197.594055 
	C101.300720,195.910156 101.111229,194.309418 101.109062,192.708405 
	C101.086960,176.401337 100.992378,160.092865 101.207466,143.788605 
	C101.239326,141.373810 102.226944,138.554474 103.706635,136.647064 
	C110.638382,127.711700 117.896996,119.029907 125.680458,110.092621 
	C126.830284,109.948112 127.338486,109.968506 127.846695,109.988907 
z"/>
<path fill="#00D684" opacity="1.000000" stroke="none" 
	d="
M158.862640,39.033630 
	C158.862564,35.590622 158.862564,32.639874 158.862564,29.372070 
	C167.364456,29.372070 175.262405,29.372070 183.537796,29.372070 
	C183.537796,37.463383 183.537796,45.358238 183.537796,53.674393 
	C175.566681,53.674393 167.670624,53.674393 158.862732,53.674393 
	C158.862732,49.023033 158.862732,44.274460 158.862640,39.033630 
z"/>
<path fill="#FEFEFF" opacity="1.000000" stroke="none" 
	d="
M44.004982,198.128296 
	C43.712292,197.915237 43.419601,197.702179 43.075722,196.778717 
	C43.035309,188.382996 43.046085,180.697662 43.056862,173.012314 
	C51.292534,173.012314 59.528206,173.012314 68.204559,173.012314 
	C68.204559,181.264542 68.204559,189.173660 67.635078,197.537720 
	C59.378727,198.037872 51.691853,198.083084 44.004982,198.128296 
z"/>
<path fill="#005CFF" opacity="1.000000" stroke="none" 
	d="
M127.678940,28.885071 
	C100.328583,29.081915 72.631966,29.039991 44.470215,28.934498 
	C45.610569,28.580948 47.215515,28.041782 48.821617,28.038307 
	C73.534309,27.984793 98.247169,27.990059 122.959915,28.028576 
	C124.417824,28.030848 125.875099,28.431198 127.678940,28.885071 
z"/>
<path fill="#005AFF" opacity="1.000000" stroke="none" 
	d="
M128.050308,88.609985 
	C127.857643,69.261810 127.922356,49.591339 127.932838,29.447426 
	C128.250687,30.382010 128.940460,31.788675 128.946487,33.198261 
	C129.020233,50.441582 129.006454,67.685356 128.963745,84.928886 
	C128.960968,86.049034 128.536179,87.168121 128.050308,88.609985 
z"/>
<path fill="#005CFF" opacity="1.000000" stroke="none" 
	d="
M42.683727,30.364220 
	C42.935371,37.686146 42.989021,45.369129 43.049335,53.520031 
	C42.865910,46.233727 42.675819,38.479500 42.683727,30.364220 
z"/>
<path fill="#005CFF" opacity="1.000000" stroke="none" 
	d="
M42.825645,173.355209 
	C43.046085,180.697662 43.035309,188.382996 42.953476,196.532684 
	C42.786423,189.230713 42.690426,181.464417 42.825645,173.355209 
z"/>
<path fill="#005CFF" opacity="1.000000" stroke="none" 
	d="
M44.366760,198.324417 
	C51.691853,198.083084 59.378727,198.037872 67.534531,197.997116 
	C60.245148,198.174561 52.486843,198.347549 44.366760,198.324417 
z"/>
<path fill="#00DC79" opacity="1.000000" stroke="none" 
	d="
M127.894341,109.689667 
	C127.338486,109.968506 126.830284,109.948112 125.940086,109.906296 
	C126.108978,109.123642 126.659866,108.362411 127.559410,107.119385 
	C127.752777,108.267220 127.847382,108.828827 127.894341,109.689667 
z"/>
<path fill="#0060FF" opacity="1.000000" stroke="none" 
	d="
M100.773338,55.128719 
	C100.913467,55.168407 100.982834,55.329685 100.990051,55.747009 
	C100.698372,55.790684 100.623268,55.539768 100.773338,55.128719 
z"/>
</svg>